<svg width="80" height="62" viewBox="0 0 80 62" fill="none" xmlns="http://www.w3.org/2000/svg">
<path d="M67.5568 12.8216C56.8721 6.59681 42.6707 5.17991 30.8735 7.05727C17.675 -4.16766 2.88472 0.995364 0 2.47961C0 2.47961 10.15 10.0845 8.50137 16.7453C-3.51527 27.5465 2.19722 39.5723 8.50137 45.2509C10.15 51.9117 0 59.5166 0 59.5166C2.85694 61.0057 17.6069 66.1528 30.8735 54.9855C42.6443 56.8506 56.8457 55.4459 67.5568 49.2101C84.1206 39.8858 84.1748 22.1936 67.5568 12.8204V12.8216ZM40.8582 49.1501C36.7275 49.1606 32.6132 48.6924 28.6208 47.7577L25.8749 50.0955C24.3497 51.3997 22.642 52.5269 20.793 53.4498C18.5498 54.4457 16.1128 55.0578 13.6111 55.2537C13.75 55.0357 13.8722 54.8177 13.9958 54.612C16.743 50.1217 17.4838 46.0931 16.218 42.5261C11.7 39.3899 8.99581 35.3817 8.99581 30.9987C8.99581 20.9568 23.2652 12.8216 40.8582 12.8216C58.4513 12.8216 72.7207 20.9568 72.7207 30.9987C72.7207 41.0407 58.4513 49.1501 40.8582 49.1501ZM25.5722 35.3216C24.3108 35.3374 23.0938 34.9116 22.1878 34.1375C21.2818 33.3635 20.7608 32.3044 20.7388 31.1922C20.6416 25.6336 30.1597 25.5124 30.2555 31.0587V31.1212C30.2613 31.6684 30.1448 32.2112 29.9126 32.7187C29.6803 33.2262 29.3369 33.6883 28.9019 34.0786C28.4669 34.469 27.949 34.7799 27.3776 34.9936C26.8063 35.2073 26.1928 35.3196 25.5722 35.3241V35.3216ZM35.818 31.1922C35.7083 25.6336 45.2263 25.5001 45.336 31.0465V31.1212C45.3902 36.6418 35.9277 36.7018 35.818 31.1922ZM55.7318 35.3216C54.4703 35.3374 53.2531 34.9116 52.3469 34.1376C51.4407 33.3636 50.9194 32.3045 50.8971 31.1922C50.8013 25.6336 60.3193 25.5124 60.4151 31.0587V31.1212C60.423 31.6689 60.3079 32.2125 60.0764 32.7208C59.8448 33.229 59.5015 33.6919 59.0661 34.0826C58.6307 34.4733 58.112 34.7841 57.5397 34.9972C56.9674 35.2103 56.353 35.3214 55.7318 35.3241V35.3216Z" fill="black"/>
</svg>
